<?xml version="1.0" encoding="utf-8"?>

<!DOCTYPE svg PUBLIC "-//W3C//DTD SVG 1.1//EN" "http://www.w3.org/Graphics/SVG/1.1/DTD/svg11.dtd">
<svg version="1.1" id="Layer_1" xmlns="http://www.w3.org/2000/svg" xmlns:xlink="http://www.w3.org/1999/xlink" x="0px" y="0px"
	 viewBox="0 0 2679.911 1543.06" style="enable-background:new 0 0 2679.911 1543.06;" xml:space="preserve">
<path d="M2542.208,53.001c0.407,8.653-1.944,17.071-3.978,25.389c-31.971,120.858-129.366,162.12,2.812,107.867
	c32.33-13.753,69.312-30.095,78.716-66.284c2.745,53.621-23.412,112.46-59.792,156.755c-18.975,24.705-42.049,42.931-41.7,51.962
	c7.19,2.375,69.79-16.392,74.765-42.505c0.389-0.154,1.185-0.479,1.573-0.633c2.316,58.885-58.657,170.038-169.983,233.084
	c-7.134,4.476-16.031,6.935-21.049,14.159c-1.763,1.736-0.027,3.834,1.049,5.389c1.79,2.577,4.864,3.644,7.55,5.036
	c34.981,16.704,44.854,62.119,62.071,69.431c-79.917,47.677-91.938,61.715-149.729,71.754c-35.406,8.616-2.125,15.887,10.1,32.36
	c12.957,15.931,17.758,36.374,27.089,54.304c1.799,2.92,4.494,5.127,6.465,7.938c-7.631,2.586-15.66,3.698-23.309,6.203
	c-18.78,5.814-35.525,16.383-53.355,24.403c-59.76,26.08-121.047-2.801-130.236-2.767c-1.881,1.329-4.494,3.056-4.412,5.597
	c2.408,6.195,27.147,30.065,8.689,75.154c-2.513,5.787-1.447,12.224-1.428,18.327c-0.298,0.145-0.895,0.434-1.184,0.579
	c-19.214-15.991-30.454,3.556-56.284,3.436c-8.689,0.19-16.908-3.065-25.335-4.611c-5.579-0.226-9.919,4.919-10.778,10.109
	c-4.531,21.242-20.696,29.904-12.839,52.912c-3.734-1.419-6.537-4.602-10.443-5.57c-11.23-2.342-22.107,2.143-32.785,4.91
	c-7.785,2.233-15.913,0.506-23.834,0.968c-5.434,1.049-8.427,6.212-11.392,10.362c-3.63,5.647-17.524,15.944-22.459,24.485
	c-2.622,4.213-1.609,9.349-1.293,14.015c-7.838-4.176-4.071-9.893-30.968-4.141c-13.304,2.959-19.16-7.699-30.018,5.714
	c-12.172,15.578-23.349,13.101-30.959,38.888c-2.206-3.156-3.942-7.36-8.137-8.228c-12.002-2.708-35.883,7.225-49.114-0.841
	c-4.702-2.595-9.223-7.658-15.109-5.949c-5.796,2.803-9.865,8.147-15.606,11.067c-16.607,8.563-28.587,6.564-42.369,23.825
	c-11.633-35.189-47.306-1.008-64.973-24.901c-2.92-3.716-5.226-8.617-10.154-9.964c-5.036-1.257-9.874,1.193-14.765,1.971
	c-8.734,1.492-17.911,1.194-26.103,5.009c-9.042-41.337-59.518-22.336-40.317-121.158c8.442-44.095,42.733-140.239,22.622-176.031
	c-8.026-14.664-25.979-13.849-30.995-9.837c-6.363,5.086-4.798,4.768-4.738,40.769c1.972,115.918-33.243,127.802-44.232,209.775
	c-17.953,139.412,115.423,192.402,154.919,281.321c13.487,30.317-8.827,39.765-2.568,63.273
	c-12.526-0.563-18.88,12.707-35.208,12.297c-5.669,0.045-11.438,2.685-14.231,7.794c-11.05,20.477-40.596,25.494-34.304,50.66
	c-0.515,0.036-1.546,0.118-2.061,0.163c-8.721-7.853-15.821-8.358-40.877-3.87c-6.953,1.193-13.897-1.935-20.76-0.344
	c-6.537,2.125-7.233,9.738-10.868,14.584c-6.6,10.262-19.449,13.481-27.161,22.622c-6.322,7.112-8.788,14.591-0.434,19.286
	c-0.045,0.542-0.135,1.618-0.181,2.161c-4.259-1.826-8.418-4.195-13.11-4.629c-19.318-1.323-29.171,7.502-42.441,6.13
	c-18.001-2.245-19.302-16.09-30.859-13.291c-4.313,2.532-7.206,6.881-11.582,9.349c-9.801,5.742-21.609,6.004-31.872,10.615
	c-14.111,5.714-13.432,14.484-15.832,18.454c-8.43-27.152-35.463-18.436-51.139-31.465c-3.4-2.939-6.781-6.474-11.447-7.116
	c-11.018,2.094-12.552,12.109-27.984,13.463c-13.273,1.072-26.224-8.144-43.21-6.013c-4.286,0.642-8.02,3.119-12.288,3.797
	c1.573-2.83,5.353-4.557,5.344-8.101c0.786-14.954-26.411-24.013-34.024-37.206c-3.812-5.75-2.815-15.672-15.398-13.454
	c-23.779,4.146-39.566-9.567-56.23,5.09c-0.289-0.325-0.85-0.967-1.13-1.293c0.542-3.707,1.628-7.712-0.253-11.23
	c-5.75-12.622-18.083-19.991-27.921-29.06c-6.962-6.488-8.377-18.862-17.414-16.935c-15.026,3.29-27.129-13.761-38.825-12.279
	c0.687-3.535,2.45-7.007,1.863-10.687c-3.677-23.28-24.728-30.505,18.174-88.78c67.135-89.348,157.854-127.993,127.424-274.847
	c-10.779-44.896-32.604-64.453-38.083-146.492c-1.45-11.511-0.475-51.48-0.597-68.038c0.663-8.054-23.827-15.671-35.307,1.98
	c-36.38,56.827,63.782,209.128,8.752,262.967c-27.724,25.479-22.064,23.181-27.667,35.696c-9.222-4.873-20.063-3.174-29.819-6.094
	c-4.023-0.995-8.4-3.481-12.396-1.013c-7.399,2.433-7.944,19.418-27.812,18.969c-18.585,0.709-36.171-11.675-45.932,15.814
	c-11.184-16.295-29.648-16.618-43.508-24.548c-8.915-4.872-11.68-17.161-24.774-7.486c-6.863,5.769-16.32,7.911-25.091,6.709
	c-32.479-6.302-31.458-2.561-36.311,5.506c-4.284-9.635-0.504-12.267-22.414-30.036c-12.387-9.891-11.79-19.488-26.998-14.946
	c-14.577,4.719-30.444-10.766-42.161,4.666c-1.401-3.897,1.085-8.156-1.04-11.971c-5.805-12.486-19.367-18.834-26.157-30.66
	c-1.863-3.716-5.271-6.456-9.421-7.098c-4.837,0.57-9.62,2.116-14.539,1.564c-10.971-1.516-33-10.559-42.912-6.13
	c-3.047,1.311-5.588,3.508-8.499,5.072c4.913-25.365-4.152-25.483-11.492-46.98c-1.555-4.078-2.287-8.508-4.584-12.26
	c-7.345-10.588-20.604,4.797-41.935-0.09c-16.959-2.662-37.217-17.942-47.939-1.736c-0.335-0.226-1.004-0.687-1.338-0.922
	c6.151-23.99-19.82-34.457-1.058-80.136c1.6-4.033,4.666-7.812,3.951-12.405c0.19-1.582-1.175-2.631-2.423-3.264
	c-12.15-2.234-60.498,19.873-111.085,5.027c-26.935-7.749-49.575-26.085-77.017-32.414c-5.28-1.528-10.94-1.989-15.832-4.656
	c15.476-15.807,17.771-47.822,38.563-67.179c6.293-6.637,15.977-9.693,20.398-18.092c0.53-11.049-32.725-6.896-71.574-25.425
	c-17.394-7.942-89.394-52.946-93.409-55.705c18.355-6.533,22.91-48.023,62.017-69.141c2.857-1.637,6.139-3.156,7.694-6.248
	c2.343-6.995-8.929-11.761-15.904-15.76C140.671,455.113,79.427,333.686,85.842,285.181c2.719,4.004,4.906,13.936,19.611,23.101
	c13.29,8.745,43.434,21.56,57.857,22.143c0.253-1.103,0.443-2.215,0.561-3.327c-9.049-18.321-105.428-90.383-103.897-206.891
	c0.226,0.063,0.66,0.19,0.886,0.253c9.071,37.651,53.486,55.334,87.686,69.602c54.404,23.556,54.49,21.351,58.12,20.045
	c0.592-11.967-5.121-10.91-22.649-40.073c-18.854-29.999-43.295-79.666-46.32-115.353c0.434-0.072,1.302-0.208,1.736-0.271
	C172.5,124.553,333.578,159.21,477.824,219.71c50.344,21.194,100.19,43.49,149.829,66.284c56.587,25.382,72.768,51.81,76.194,35.669
	c-1.412-8.875-23.892-96.061-22.631-104.964c146.572,76.607,89.729,117.488,157.695,171.963
	c90.467,71.142,276.284,139.03,277.271,107.568c12.078-80.119-9.014-111.066-13.11-131.022c29.889,7.198,47.55,31.204,109.331,38.11
	c36.293,1.666,59.487-2.283,76.836-3.553c12.21-1.916,77.839-2.075,85.163-0.958c19.376,0.384,55.445,5.25,64.087,4.774
	c99.968-1.876,99.581-30.94,138.897-38.192c-2.658,9.789-21.176,52.116-16.953,102.595c4.655,36.182-1.44,43.255,44.666,32.685
	c116.25-29.977,214.498-90.917,245.688-120.199c26.214-24.443,32.699-60.896,50.832-88.31c26.818-41.927,94.91-74.286,98.056-75.226
	c-30.551,158.917-48.298,114.171,61.872,64.919c84.093-38.172,192.173-86.592,271.095-111.583
	C2502.294,114.633,2524.042,81.16,2542.208,53.001z"/>
</svg>
